<?xml version="1.0" encoding="UTF-8" standalone="no"?>
<!-- Created with Inkscape (http://www.inkscape.org/) -->

<svg
   viewBox="0 0 13.229167 13.229167"
   version="1.1"
   id="svg4289"
   inkscape:version="1.1.1 (3bf5ae0d25, 2021-09-20)"
   sodipodi:docname="三日月黒フチと黄色フチ.svg"
   xmlns:inkscape="http://www.inkscape.org/namespaces/inkscape"
   xmlns:sodipodi="http://sodipodi.sourceforge.net/DTD/sodipodi-0.dtd"
   xmlns="http://www.w3.org/2000/svg"
   xmlns:svg="http://www.w3.org/2000/svg">
  <sodipodi:namedview
     id="namedview4291"
     pagecolor="#505050"
     bordercolor="#eeeeee"
     borderopacity="1"
     inkscape:pageshadow="0"
     inkscape:pageopacity="0"
     inkscape:pagecheckerboard="0"
     inkscape:document-units="mm"
     showgrid="false"
     units="px"
     inkscape:zoom="11.573962"
     inkscape:cx="22.72342"
     inkscape:cy="25.747449"
     inkscape:window-width="805"
     inkscape:window-height="1030"
     inkscape:window-x="810"
     inkscape:window-y="0"
     inkscape:window-maximized="0"
     inkscape:current-layer="layer1" />
  <defs
     id="defs4286" />
  <g
     inkscape:label="Layer 1"
     inkscape:groupmode="layer"
     id="layer1">
    <g
       id="g4952"
       transform="matrix(1.0241292,0,0,1.0368367,-0.24261044,0.00126235)">
      <path
         id="path4546"
         style="fill:#f9e97a;fill-opacity:1;stroke:none;stroke-width:0.2;stroke-linecap:round;stroke-linejoin:round;stroke-miterlimit:4;stroke-dasharray:none;stroke-opacity:1"
         sodipodi:type="inkscape:offset"
         inkscape:radius="0.97839063"
         inkscape:original="M 14.126953 4.4609375 C 14.57357 9.2827041 11.39885 12.722008 6.3125 12.275391 C 8.4818187 14.317181 11.892772 14.283274 14.013672 12.162109 C 16.134837 10.041209 16.169007 6.6302562 14.126953 4.4609375 z "
         transform="rotate(88.591197,9.8102865,5.5154409)"
         d="M 13.724609,3.5683594 A 0.97848847,0.97848847 0 0 0 13.152344,4.5507812 C 13.354046,6.7283973 12.746072,8.4800898 11.59375,9.6601562 10.441428,10.840223 8.7059456,11.503397 6.3984375,11.300781 a 0.97848847,0.97848847 0 0 0 -0.7558594,1.6875 c 2.5459813,2.39631 6.5744309,2.353615 9.0624999,-0.134765 2.488352,-2.488041 2.531395,-6.5165091 0.134766,-9.0625004 A 0.97848847,0.97848847 0 0 0 13.724609,3.5683594 Z" />
      <path
         fill="#ffd983"
         d="M 10.973322,9.8027323 C 6.163993,10.367761 2.6473896,7.2782854 2.9688195,2.1824926 c -1.98783797,2.2188619 -1.869855,5.628 0.3028125,7.6961085 2.1724094,2.0683799 5.5832322,2.0189019 7.70169,-0.075869 z"
         id="path4360"
         style="fill:#f9e97a;fill-opacity:1;stroke:#000000;stroke-width:0.2;stroke-linecap:round;stroke-linejoin:round;stroke-miterlimit:4;stroke-dasharray:none;stroke-opacity:1" />
    </g>
  </g>
</svg>
