<?xml version="1.0" encoding="UTF-8" standalone="no"?>
<!-- Created with Inkscape (http://www.inkscape.org/) -->

<svg
   viewBox="0 0 17.991666 5.2916668"
   version="1.1"
   id="svg5"
   inkscape:version="1.1.1 (3bf5ae0d25, 2021-09-20)"
   sodipodi:docname="莉光迷站_黒ピンク.svg"
   xmlns:inkscape="http://www.inkscape.org/namespaces/inkscape"
   xmlns:sodipodi="http://sodipodi.sourceforge.net/DTD/sodipodi-0.dtd"
   xmlns="http://www.w3.org/2000/svg"
   xmlns:svg="http://www.w3.org/2000/svg">
  <sodipodi:namedview
     id="namedview7"
     pagecolor="#505050"
     bordercolor="#eeeeee"
     borderopacity="1"
     inkscape:pageshadow="0"
     inkscape:pageopacity="0"
     inkscape:pagecheckerboard="0"
     inkscape:document-units="mm"
     showgrid="false"
     units="px"
     inkscape:zoom="5.7869809"
     inkscape:cx="51.4949"
     inkscape:cy="23.414627"
     inkscape:window-width="1920"
     inkscape:window-height="1001"
     inkscape:window-x="-9"
     inkscape:window-y="-9"
     inkscape:window-maximized="1"
     inkscape:current-layer="layer1" />
  <defs
     id="defs2" />
  <g
     inkscape:label="Layer 1"
     inkscape:groupmode="layer"
     id="layer1">
    <g
       aria-label="莉光迷站"
       id="text3026"
       style="font-size:4.23333px;line-height:1.25;font-family:SoukouMincho;-inkscape-font-specification:'SoukouMincho, Normal';fill:currentColor;fill-opacity:1;stroke-width:0.264583"
       transform="matrix(1,0,-0.26794919,1,-3.3320843,-0.04572044)">
      <path
         d="m 6.2746916,2.7813438 q -0.0127,0.016933 -0.033867,0.059267 -0.016933,0.042333 -0.016933,0.0635 v 1.6636986 q 0,0.059267 -0.055033,0.0889 -0.0508,0.029633 -0.1227665,0.042333 -0.067733,0.016933 -0.1396999,0.016933 -0.071967,0.00423 -0.1100666,0.00423 -0.021167,0 -0.0381,-0.00847 -0.016933,-0.00423 -0.016933,-0.033867 v -1.041392 q 0,-0.029633 -0.0254,-0.029633 -0.033867,0 -0.0889,0.0508 -0.055033,0.046567 -0.1185332,0.1185333 -0.0635,0.067733 -0.1354665,0.1523998 -0.067733,0.084667 -0.1354666,0.1566332 -0.067733,0.067733 -0.1312332,0.1185333 -0.059267,0.046567 -0.1015999,0.046567 -0.0254,0 -0.0254,-0.016933 0,-0.016933 0.00847,-0.033867 0.0381,-0.1015999 0.1016,-0.2370664 Q 5.1570925,3.8269762 5.2078925,3.7296096 5.3179591,3.5137098 5.3899257,3.2935767 5.4618923,3.0692102 5.5380922,2.8406104 l 0.00423,-0.0127 q 0,-0.021167 -0.0127,-0.033867 -0.0127,-0.016933 -0.033867,-0.016933 H 4.9750594 q -0.021167,0 -0.021167,-0.021167 0,-0.021167 0.021167,-0.021167 h 0.6984994 q 0.042333,0 0.042333,-0.042333 V 2.2140776 q 0,-0.042333 -0.042333,-0.042333 h -0.423333 q -0.084667,0 -0.0889,-0.016933 0,-0.021167 0.080433,-0.042333 0.046567,-0.00847 0.0889,-0.0254 0.046567,-0.021167 0.093133,-0.0381 0.029633,-0.00847 0.093133,-0.029633 0.067733,-0.0254 0.1523998,-0.059267 0.084667,-0.033867 0.1735666,-0.067733 0.093133,-0.0381 0.1693331,-0.0762 0.0762,-0.0381 0.1269999,-0.071967 0.055033,-0.0381 0.059267,-0.0635 -0.0127,-0.00847 -0.0381,-0.016933 -0.0254,-0.00847 -0.055033,-0.0127 -0.0254,-0.00847 -0.055033,-0.00847 -0.0254,-0.00423 -0.042333,-0.00423 l -0.029633,-0.021167 q -0.00847,-0.016933 -0.0127,-0.1269999 0,-0.1142999 0,-0.2497665 0,-0.1396999 0,-0.26669976 0.00423,-0.12699989 0.00423,-0.16509986 0,-0.0423333 0.0381,-0.0423333 0.033867,0 0.1058333,0.004233 0.0762,0.004233 0.1566332,0.0127 0.084667,0.008467 0.1566332,0.0211667 0.071967,0.008467 0.1015999,0.0211666 0.00847,0.004233 0.021167,0.0127 0.0127,0.004233 0.0127,0.0169333 0,0.0254 -0.029633,0.0423333 -0.0254,0.0127 -0.029633,0.0465666 l -0.0254,0.22436652 q -0.00423,0.021167 0.0127,0.046567 0.021167,0.0254 0.042333,0.0254 0.029633,0 0.1142999,0 0.084667,-0.00423 0.1735665,-0.00423 0.0889,0 0.1608666,0.00847 0.0762,0.00423 0.093133,0.021167 -0.00423,0.021167 -0.080433,0.029633 -0.071967,0.00423 -0.1650999,0.00423 -0.0889,0 -0.1735665,0 -0.084667,-0.00423 -0.1142999,-0.00423 -0.0254,0 -0.042333,0.042333 -0.0127,0.042333 -0.021167,0.097367 -0.00423,0.055033 -0.00423,0.1100666 0,0.0508 0,0.067733 0,0.0254 0.055033,0.080433 0.055033,0.0508 0.1185332,0.1058332 0.0635,0.055033 0.1185332,0.1058332 0.055033,0.0508 0.055033,0.0762 0,0.021167 -0.021167,0.0254 -0.016933,0.00423 -0.033867,0.00423 -0.0381,0 -0.1312332,0.00423 -0.0889,0 -0.1820332,0.0127 -0.0889,0.0127 -0.1608665,0.046567 -0.067733,0.029633 -0.067733,0.084667 0,0.021167 0,0.1015999 0.00423,0.080433 0.00847,0.1735665 0.00423,0.0889 0.00847,0.1650999 0.00423,0.0762 0.00847,0.080433 0.0127,0.0254 0.021167,0.029633 0.0127,0 0.0381,0 0.055033,0 0.097367,-0.0508 0.046567,-0.0508 0.084667,-0.1142999 0.0381,-0.0635 0.067733,-0.1142999 0.033867,-0.0508 0.059267,-0.0508 0.016933,0 0.080433,0.055033 0.067733,0.0508 0.1354665,0.1185332 0.071967,0.067733 0.1269999,0.1312333 0.059267,0.0635 0.059267,0.080433 0,0.0127 -0.016933,0.0127 -0.1608665,0 -0.3513664,-0.00423 -0.1904998,-0.00847 -0.3428997,0.00423 z M 7.718257,0.97371194 V 1.1980784 q 0,0.042333 0.042333,0.042333 h 0.3259664 q 0.055033,0 0.1016,-0.0508 0.046567,-0.0508 0.084666,-0.1100666 0.0381,-0.0635 0.067733,-0.11429992 0.029633,-0.0508 0.055033,-0.0508 0.0127,0 0.071967,0.0465666 0.059267,0.0465667 0.1269999,0.10583322 0.067733,0.055033 0.1227666,0.1058332 0.059267,0.0508 0.067733,0.0635 0.00423,0.00847 0.00423,0.0127 0,0 0.00423,0.00847 -0.00847,0.016933 -0.042333,0.029633 -0.029633,0.00847 -0.046567,0.00847 H 7.769057 q -0.0127,0 -0.029633,0.029633 -0.0127,0.029633 -0.029633,0.071967 -0.016933,0.0381 -0.029633,0.0762 -0.0127,0.033867 -0.021167,0.046567 -0.046567,0.0635 -0.1354665,0.0762 -0.084667,0.00847 -0.1566332,0.00847 -0.033867,0 -0.093133,0.00423 -0.055033,0 -0.067733,-0.042333 -0.0127,-0.042333 -0.021167,-0.1142999 -0.00423,-0.071967 -0.00847,-0.1523999 0,-0.080433 0,-0.1566332 0.00423,-0.0762 0.00423,-0.1269999 0,-0.0169333 -0.00423,-0.0550333 0,-0.0423333 0,-0.0846666 0.00423,-0.0423333 0.0127,-0.0761999 0.00847,-0.0338666 0.033867,-0.0338666 0.033867,0 0.1100665,0.008467 0.080433,0.004233 0.1650999,0.0127 0.084667,0.008467 0.1566332,0.0211666 0.0762,0.008467 0.1058332,0.0169333 0.0127,0.004233 0.0254,0.0127 0.0127,0.004233 0.0127,0.0211667 0,0.0169333 -0.029633,0.0465666 -0.0254,0.0254 -0.0381,0.0381 z M 5.8640586,1.2658117 q 0,0.00847 -0.033867,0.021167 -0.029633,0.00847 -0.0381,0.00847 H 4.9538927 q -0.033867,0 -0.033867,-0.0254 0,-0.029633 0.033867,-0.029633 h 0.846666 q 0.0127,0 0.033867,0.00847 0.021167,0.00847 0.029633,0.016933 z m 2.1208982,2.8828976 0.016933,-0.016933 0.0127,-0.029633 v -2.374898 q 0,-0.042333 0.042333,-0.042333 0.1481666,0 0.2878665,0.016933 0.1439332,0.016933 0.2878664,0.042333 l 0.0254,0.016933 q 0,0.021167 -0.021167,0.033867 -0.021167,0.0127 -0.042333,0.0254 -0.021167,0.0127 -0.042333,0.029633 -0.016933,0.0127 -0.016933,0.0381 v 2.3156314 q 0,0.2243664 -0.1312332,0.334433 -0.1269999,0.1100666 -0.3259664,0.1566332 -0.0127,0.00423 -0.042333,0.00847 -0.029633,0.00847 -0.0635,0.016933 -0.029633,0.00847 -0.059267,0.0127 -0.0254,0.00423 -0.033867,0 -0.021167,-0.00847 -0.033867,-0.055033 -0.00847,-0.046567 -0.016933,-0.1058333 -0.00847,-0.059267 -0.021167,-0.1185332 -0.0127,-0.055033 -0.033867,-0.080433 -0.0127,-0.0127 -0.046567,-0.0381 -0.033867,-0.0254 -0.071967,-0.055033 -0.033867,-0.029633 -0.0635,-0.055033 -0.0254,-0.0254 -0.0254,-0.0381 0.00423,-0.016933 0.0381,-0.021167 0.0381,-0.00847 0.0508,-0.00847 0.071967,-0.00847 0.1481665,0 0.080433,0.00423 0.1523999,0.00423 z M 7.6462904,3.7507763 q 0,0.033867 -0.059267,0.055033 -0.055033,0.021167 -0.1269999,0.033867 -0.071967,0.0127 -0.1439332,0.021167 -0.067733,0.00423 -0.093133,0.00423 -0.033867,0 -0.042333,-0.042333 -0.029633,-0.1354666 -0.021167,-0.2793998 0.00847,-0.1439332 0.00423,-0.2793998 -0.00847,-0.3428997 -0.0127,-0.681566 -0.00423,-0.3386664 -0.00423,-0.6815661 0,-0.042333 0.042333,-0.042333 0.029633,0 0.1185333,0.00423 0.093133,0 0.1904998,0.0127 0.097367,0.00847 0.1735665,0.029633 0.0762,0.016933 0.0762,0.046567 0,0.016933 -0.016933,0.033867 -0.016933,0.0127 -0.0381,0.029633 -0.016933,0.0127 -0.033867,0.029633 -0.0127,0.0127 -0.0127,0.029633 z M 6.3551249,3.0819102 q 0,-0.042333 0.042333,-0.042333 0.0889,0 0.1820331,0.046567 0.097367,0.042333 0.1735666,0.1142999 0.080433,0.067733 0.1269999,0.1566332 0.0508,0.0889 0.0508,0.1820332 0,0.2412998 -0.2328331,0.2412998 -0.1100666,0 -0.1777999,-0.0762 -0.0635,-0.080433 -0.1015999,-0.1904998 -0.0381,-0.1142999 -0.0508,-0.2328331 -0.0127,-0.1185333 -0.0127,-0.1989672 z"
         id="path5517"
         style="fill:currentColor;fill-opacity:1" />
      <path
         d="m 10.838213,2.5485106 q -0.01693,0.016933 -0.02963,0.071967 -0.0085,0.0508 -0.01693,0.1142999 -0.0042,0.0635 -0.0127,0.1227666 -0.0042,0.059267 -0.0085,0.0889 -0.05927,0.3090331 -0.186267,0.6011328 -0.122766,0.2878665 -0.334433,0.5291663 -0.05927,0.067733 -0.186266,0.1693332 -0.1227669,0.097366 -0.2667001,0.1862665 -0.1439333,0.093133 -0.2836331,0.1566332 -0.1354666,0.067733 -0.2243665,0.067733 -0.00847,0 -0.016933,-0.00423 -0.00847,-0.00423 -0.00847,-0.0127 0,-0.00847 0.00423,-0.016933 0.00847,-0.00847 0.0127,-0.0127 Q 9.4412142,4.4196424 9.5682141,4.2672425 9.6994473,4.1148426 9.7968139,3.9751427 9.8984138,3.8354429 9.966147,3.695743 q 0.071967,-0.1396999 0.1143,-0.3047998 0.04657,-0.1650998 0.06773,-0.3640663 0.02117,-0.1989665 0.02117,-0.461433 0,-0.042333 -0.04233,-0.042333 H 9.1575811 q -0.029633,0 -0.029633,-0.029633 0,-0.0254 0.029633,-0.0254 h 1.5959649 q 0.04233,0 0.04233,-0.042333 V 0.80861208 q 0,-0.0423333 0.0508,-0.0423333 0.04233,0 0.118533,0.004233 0.08043,0.004233 0.160866,0.0127 0.08467,0.008467 0.160867,0.0211667 0.0762,0.008467 0.1143,0.0211666 0.0127,0.004233 0.0254,0.0127 0.0127,0.004233 0.0127,0.0211667 0,0.0254 -0.04233,0.0592666 -0.0381,0.0296333 -0.0381,0.0677333 V 2.4088107 q 0,0.042333 0.04233,0.042333 h 0.795866 q 0.02963,0 0.0762,-0.055033 0.0508,-0.059267 0.1016,-0.1269998 0.05503,-0.067733 0.09737,-0.1227666 0.04657,-0.059267 0.06773,-0.059267 h 0.01693 q 0.0254,0.00847 0.09313,0.059267 0.07197,0.0508 0.148167,0.1142999 0.08043,0.059267 0.148166,0.1185332 0.06773,0.059267 0.0889,0.084667 l 0.0085,0.021167 q -0.0042,0.0127 -0.01693,0.0254 -0.0127,0.0127 -0.0254,0.0127 h -1.147232 q -0.04233,0 -0.04233,0.042333 0,0.3301998 0.0127,0.6561662 0.01693,0.3259663 0.01693,0.6561661 0,0.046567 -0.0042,0.093133 -0.0042,0.042333 0.04657,0.0762 0.0085,0.00423 0.0127,0.00847 0.0085,0 0.01693,0.00423 h 0.630766 q 0.0762,0 0.127,-0.080433 0.0508,-0.084667 0.08467,-0.1820332 0.03387,-0.097367 0.05503,-0.1777999 0.0254,-0.084666 0.0508,-0.084666 0.0254,0 0.03387,0.0635 0.0085,0.059267 0.0085,0.1354666 0,0.0762 -0.0042,0.1523998 -0.0042,0.071967 -0.0042,0.097367 0,0.021167 0.02963,0.042333 0.02963,0.016933 0.0635,0.046567 0.03387,0.029633 0.0635,0.0762 0.02963,0.046567 0.02963,0.1227665 0,0.1227666 -0.0762,0.1904999 -0.0762,0.067733 -0.186267,0.097367 -0.105833,0.033867 -0.224366,0.042333 -0.118533,0.00847 -0.207433,0.00847 -0.135467,0 -0.275167,-0.00847 -0.1397,-0.00423 -0.275166,-0.00423 -0.06773,0 -0.169333,-0.00423 -0.09737,0 -0.1905,-0.0254 -0.0889,-0.021167 -0.1524,-0.071967 -0.0635,-0.0508 -0.0635,-0.1523999 V 2.5781439 q 0,-0.042333 -0.04233,-0.042333 h -0.351367 z m 0.859366,-0.3894663 q 0,-0.021167 0.01693,-0.071967 0.02117,-0.0508 0.04233,-0.1100666 0.0254,-0.059267 0.04657,-0.1100666 0.02117,-0.055033 0.03387,-0.084667 0.07197,-0.1904998 0.131233,-0.3767663 0.0635,-0.1904999 0.118533,-0.3809997 l 0.02117,-0.0127 q 0.0635,0.016933 0.118533,0.0508 0.05927,0.033867 0.118533,0.0635 0.09737,0.046567 0.194734,0.0889 0.09737,0.0381 0.194733,0.0889 0.0085,0.00423 0.02117,0.0127 0.0127,0.00847 0.0127,0.021167 0,0.00847 -0.07197,0.071967 -0.06773,0.0635 -0.1778,0.1566332 -0.105833,0.0889 -0.232833,0.1904998 -0.127,0.1016 -0.245533,0.1947332 -0.118534,0.0889 -0.207434,0.1523999 -0.0889,0.0635 -0.118533,0.071967 z M 9.5512807,1.1303451 q 0.00423,-0.033867 0.046567,-0.033867 0.1269999,0 0.2666997,0.071967 0.1439326,0.067733 0.2624666,0.1777999 0.118533,0.1100665 0.194733,0.2455331 0.08043,0.1354665 0.08043,0.2666998 0,0.1481665 -0.0762,0.2455331 -0.07197,0.097367 -0.2286,0.097367 -0.0635,0 -0.1312327,-0.0127 -0.067733,-0.016933 -0.1015999,-0.0762 -0.0127,-0.016933 -0.029633,-0.084666 -0.0127,-0.071967 -0.033867,-0.1566332 -0.016933,-0.084667 -0.033867,-0.1608666 -0.016933,-0.080433 -0.029633,-0.1185332 -0.0381,-0.1185332 -0.0889,-0.2328331 -0.0508,-0.1143 -0.097367,-0.2285999 z"
         id="path5519"
         style="fill:currentColor;fill-opacity:1" />
      <path
         d="m 17.243233,3.1115435 q -0.0635,0.0508 -0.110067,0.1185332 -0.04657,0.0635 -0.09313,0.1312332 -0.04233,0.067733 -0.0889,0.1396999 -0.04233,0.067733 -0.09737,0.1227666 -0.03387,0.0127 -0.0889,-0.0381 -0.0508,-0.055033 -0.1143,-0.1439332 -0.0635,-0.093133 -0.131234,-0.2031998 -0.0635,-0.1142999 -0.118533,-0.2201332 -0.05503,-0.1058332 -0.1016,-0.1904998 -0.04233,-0.084667 -0.05927,-0.1185333 -0.0085,-0.016933 -0.0254,-0.029633 -0.01693,-0.0127 -0.0381,0.00423 -0.03387,0.029633 -0.04233,0.067733 -0.0042,0.033867 -0.0042,0.0762 0,0.029633 -0.0042,0.1100666 0,0.080433 -0.0042,0.1904998 0,0.1058332 -0.0042,0.2243665 -0.0042,0.1185332 -0.0085,0.2201331 -0.0042,0.097367 -0.0085,0.1650999 -0.0042,0.067733 -0.0085,0.0762 -0.02117,0.0381 -0.08467,0.067733 -0.05927,0.0254 -0.131234,0.042333 -0.07197,0.016933 -0.143933,0.0254 -0.06773,0.00847 -0.110066,0.00847 -0.04233,0 -0.04233,-0.042333 0,-0.2031998 0.0042,-0.4063996 0.0085,-0.2031999 0.0085,-0.4063997 0,-0.0635 0.02117,-0.1312332 0.02117,-0.071967 0,-0.1312332 -0.0085,-0.00847 -0.01693,-0.0127 -0.0042,-0.00847 -0.0127,-0.00847 -0.01693,0 -0.08467,0.059267 -0.0635,0.059267 -0.156633,0.1523999 -0.09313,0.0889 -0.2032,0.1947332 -0.110067,0.1015999 -0.2159,0.1947331 -0.105833,0.0889 -0.198966,0.1481666 -0.0889,0.059267 -0.143934,0.059267 -0.02963,0 -0.02117,-0.021167 0.0085,-0.0254 0.01693,-0.033867 0.0381,-0.0635 0.110067,-0.1693332 0.07197,-0.1058332 0.1524,-0.2328331 0.08043,-0.1269999 0.165099,-0.2666998 0.08467,-0.1396999 0.1524,-0.2666998 0.06773,-0.1269999 0.110067,-0.2328331 0.04657,-0.1100666 0.04657,-0.1735665 -0.0127,-0.033867 -0.04657,-0.033867 h -0.7239 q -0.02117,0 -0.02117,-0.021167 0,-0.021167 0.02117,-0.021167 h 1.007533 q 0.04233,0 0.04233,-0.042333 V 0.81284541 q 0,-0.0296333 0.0127,-0.0338666 0.01693,-0.008467 0.04233,-0.008467 0.04657,0 0.0889,0.0127 0.04233,0.008467 0.0889,0.0169333 0.08467,0.0127 0.1651,0.0169333 0.08467,0.004233 0.169333,0.0169333 0.0127,0.004233 0.02963,0.008467 0.01693,0 0.01693,0.0211666 0,0.0169333 -0.0254,0.0465666 -0.0254,0.0254 -0.0381,0.0338666 l -0.0127,0.0296333 q 0,0.0381 0,0.13969989 0,0.097367 -0.0042,0.2285998 0,0.1312333 0,0.2751665 0,0.1439332 0,0.2666997 0.0042,0.1185333 0.0042,0.2031999 0,0.084667 0.0042,0.093133 0.0635,0.1650999 0.186267,0.3005664 0.127,0.1312333 0.2794,0.2412998 0.1524,0.1100666 0.321733,0.1947332 0.169333,0.084667 0.321733,0.1523999 l 0.0127,0.016933 z M 14.110569,1.7484113 q -0.04657,0 -0.110067,-0.016933 -0.0635,-0.021167 -0.09737,-0.059267 -0.0085,-0.00847 -0.0085,-0.016933 -0.02117,-0.046567 -0.07197,-0.1481665 -0.0508,-0.1015999 -0.105833,-0.2074332 -0.0508,-0.1100665 -0.09313,-0.2031998 -0.0381,-0.0973666 -0.0381,-0.13546655 0,-0.0423333 0.0381,-0.0423333 0.105833,0 0.237066,0.0338666 0.131234,0.0338666 0.245533,0.10159995 0.118534,0.067733 0.194734,0.1650999 0.08043,0.097367 0.08043,0.2243664 0,0.1227666 -0.07197,0.2158999 -0.06773,0.0889 -0.198966,0.0889 z m 3.022597,-0.5249329 q 0.0127,0.016933 -0.0127,0.042333 -0.0254,0.0254 -0.03387,0.033867 -0.04233,0.0381 -0.1524,0.1396999 -0.110067,0.1015999 -0.237067,0.2074332 -0.122766,0.1058332 -0.232833,0.1862665 -0.110066,0.080433 -0.1524,0.080433 -0.0085,0 -0.0127,-0.0127 -0.0042,-0.0127 -0.0042,-0.021167 -0.0042,-0.016933 0.0085,-0.084667 0.0127,-0.071967 0.02963,-0.1650998 0.02117,-0.093133 0.04657,-0.1947332 0.0254,-0.1058333 0.04657,-0.1947332 0.0254,-0.093133 0.04233,-0.1566332 0.02117,-0.0635 0.02963,-0.0762 0.01693,-0.0254 0.0508,-0.0254 0.0127,0 0.0889,0.0338666 0.08043,0.033867 0.1778,0.0762 0.09737,0.042333 0.186266,0.080433 0.09313,0.0381 0.131233,0.0508 z M 14.686302,1.0795452 q 0,-0.042333 0.04233,-0.042333 0.105833,0 0.2159,0.059267 0.110066,0.055033 0.198966,0.1481665 0.0889,0.0889 0.143933,0.1989665 0.05503,0.1100666 0.05503,0.2158999 0,0.1142999 -0.05927,0.1904998 -0.05503,0.071967 -0.1778,0.071967 -0.105833,0 -0.186266,-0.1015999 -0.0762,-0.1015999 -0.131233,-0.2370665 -0.0508,-0.1396999 -0.0762,-0.2793997 -0.0254,-0.1439332 -0.0254,-0.2243665 z m 1.621365,1.117599 q -0.0042,0 -0.0254,-0.00847 -0.02117,-0.00847 -0.0254,-0.00847 v -0.00423 q 0.01693,0 0.02963,0.00423 0.01693,0 0.03387,0 0.105833,0 0.182033,-0.055033 0.08043,-0.059267 0.135467,-0.1269999 0.05927,-0.067733 0.09737,-0.1227665 0.04233,-0.059267 0.07197,-0.059267 0.01693,0 0.0889,0.0508 0.07197,0.0508 0.148166,0.1142999 0.08043,0.059267 0.1397,0.1185333 0.0635,0.055033 0.0635,0.067733 0,0.0127 -0.0042,0.016933 l -0.02963,0.0127 z m -1.769532,0.5122329 q -0.0042,0.0254 -0.03387,0.0381 -0.02963,0.00847 -0.0635,0.016933 -0.03387,0.00847 -0.0635,0.0254 -0.0254,0.016933 -0.0254,0.059267 v 0.9016993 q 0,0.0254 -0.0508,0.1015999 -0.04657,0.0762 -0.122767,0.1820332 -0.07197,0.1015999 -0.160866,0.2158998 -0.0889,0.1142999 -0.173567,0.2074331 -0.08043,0.097367 -0.143933,0.1608666 -0.05927,0.0635 -0.0762,0.067733 l -0.0085,-0.00423 q -0.0127,-0.029633 -0.05503,-0.1142999 -0.04233,-0.080433 -0.0889,-0.1735665 -0.04657,-0.0889 -0.08467,-0.1608665 -0.03387,-0.0762 -0.03387,-0.0889 0,-0.0254 0.0762,-0.046567 0.0762,-0.021167 0.169333,-0.042333 0.09313,-0.0254 0.169333,-0.0508 0.0762,-0.0254 0.0762,-0.055033 v -1.214969 q 0,-0.046567 -0.0762,-0.046567 -0.0762,-0.00423 -0.1651,0.00423 -0.0889,0.00423 -0.1651,0.00847 -0.0762,0 -0.0762,-0.0381 0,-0.0127 0.0127,-0.016933 0.01693,-0.00423 0.02117,-0.00847 0.08467,-0.021167 0.182033,-0.00847 0.09737,0.00847 0.182033,0.00847 0.01693,0 0.0508,-0.046567 0.0381,-0.046567 0.0762,-0.1058332 0.0381,-0.0635 0.07197,-0.1185333 0.03387,-0.055033 0.04657,-0.0762 l 0.02117,-0.00847 q 0.02963,0.00847 0.105833,0.067733 0.0762,0.059267 0.160867,0.1312332 0.0889,0.067733 0.156633,0.1354666 0.07197,0.067733 0.0889,0.093133 z m 0.939799,1.9176984 q -0.135466,0 -0.317499,-0.042333 -0.1778,-0.042333 -0.3429,-0.1269999 -0.1651,-0.084667 -0.2794,-0.2074331 -0.1143,-0.1269999 -0.1143,-0.2920998 0,-0.0381 0.04233,-0.0381 0.0508,0 0.118534,0.029633 0.06773,0.0254 0.143933,0.0635 0.0762,0.033867 0.1524,0.067733 0.0762,0.029633 0.148166,0.0381 0.135467,0.016933 0.2667,0.016933 0.135467,0 0.270933,0.00423 0.499533,0.0127 1.007533,0.0127 0.131233,0 0.258233,-0.00423 0.131233,-0.00423 0.262466,0 0.0127,0 0.03387,0.00423 0.0254,0 0.0254,0.021167 0,0.016933 -0.0085,0.0254 -0.0085,0.00847 -0.01693,0.021167 -0.07197,0.084667 -0.1143,0.1820332 -0.04233,0.097366 -0.0889,0.1947331 -0.01693,0.029633 -0.0381,0.029633 z"
         id="path5521"
         style="fill:currentColor;fill-opacity:1" />
      <path
         d="m 21.006654,1.3928116 q 0.0085,0.00423 0.0762,0.071967 0.07197,0.067733 0.1524,0.1523999 0.08043,0.080433 0.148167,0.1523998 0.06773,0.067733 0.07197,0.0762 0.0085,0.00847 0.0085,0.033867 0,0.021167 -0.02117,0.021167 h -0.867832 q -0.04233,0 -0.04233,0.042333 v 0.8974659 q 0,0.033867 0.0254,0.055033 0.0254,0.016933 0.05927,0.016933 0.0762,0 0.131233,-0.046567 0.05503,-0.046567 0.09737,-0.1015999 0.04657,-0.059267 0.0762,-0.1058332 0.03387,-0.0508 0.05927,-0.0508 0.01693,0 0.0889,0.055033 0.0762,0.0508 0.156634,0.1185333 0.08043,0.067733 0.143933,0.1269998 0.06773,0.055033 0.06773,0.067733 0,0.0127 -0.02117,0.029633 -0.02117,0.0127 -0.04657,0.029633 -0.02117,0.0127 -0.04233,0.029633 -0.02117,0.016933 -0.02117,0.0381 v 1.4393321 q 0,0.0381 -0.07197,0.059267 -0.07197,0.0254 -0.1651,0.033867 -0.09313,0.0127 -0.182033,0.016933 -0.08467,0.00423 -0.1143,0.00423 -0.01693,0 -0.03387,-0.00423 -0.0127,-0.00423 -0.0127,-0.0254 V 3.0184102 q 0,-0.033867 -0.05927,-0.042333 -0.05503,-0.0127 -0.1397,-0.00847 -0.08467,0 -0.182033,0.00847 -0.09737,0.00847 -0.182033,0.0127 -0.08467,0 -0.143933,-0.00847 -0.05503,-0.00847 -0.05503,-0.046567 0,-0.5291662 -0.0127,-1.0540991 -0.0127,-0.5249329 -0.0127,-1.0540991 0,-0.0423333 0.04233,-0.0423333 0.03387,0 0.135466,0.008467 0.1016,0.004233 0.211667,0.0169333 0.1143,0.008467 0.207433,0.0254 0.09313,0.0127 0.110066,0.0254 -0.0085,0.0296333 -0.04657,0.0465666 -0.0381,0.0169333 -0.05927,0.0381 -0.0042,0.004233 -0.0085,0.0635 0,0.059267 -0.0042,0.1481665 0,0.084667 0,0.1904999 0.0042,0.1015999 0.0042,0.1947331 0,0.093133 0,0.1650999 0,0.071967 0,0.097367 0,0.0127 0.04233,0.033867 0.04233,0.021167 0.05503,0.021167 0.0254,0 0.0508,-0.00847 0.0254,-0.00847 0.04657,-0.016933 0.0635,-0.0635 0.110066,-0.1481666 0.04657,-0.084667 0.0889,-0.1650998 0.01693,-0.029633 0.0254,-0.059267 0.0127,-0.033867 0.03387,-0.059267 z m -2.298698,0.3090331 q 0.0085,0.00847 0.02117,0.00847 0.03387,0 0.05927,-0.059267 0.02963,-0.059267 0.05927,-0.1312332 0.02963,-0.0762 0.0635,-0.1354666 0.03387,-0.059267 0.08043,-0.059267 h 0.0042 q 0.01693,0.00847 0.0762,0.071967 0.05927,0.0635 0.122766,0.1354666 0.0635,0.071967 0.1143,0.1354665 0.0508,0.0635 0.0508,0.0762 0,0.021167 -0.02117,0.0254 -0.01693,0.00423 -0.03387,0.00423 l -1.650999,0.029633 q -0.01693,-0.00847 -0.02963,-0.029633 -0.0085,-0.0254 0.0254,-0.0254 h 0.4699 q 0.04233,0 0.04233,-0.042333 V 0.88481202 q 0,-0.0423333 0.04233,-0.0423333 0.02117,0 0.105833,0.008467 0.0889,0.008467 0.186267,0.0169333 0.09737,0.008467 0.1778,0.0211666 0.08043,0.008467 0.09313,0.0127 0.0085,0 0.02117,0.008467 0.0127,0.008467 0.0127,0.0169333 0,0.0127 -0.01693,0.0254 -0.01693,0.008467 -0.0381,0.0211667 -0.01693,0.008467 -0.03387,0.0254 -0.01693,0.0127 -0.01693,0.0296333 v 0.6434662 z m -0.198966,1.951565 q -0.0127,-0.00847 -0.0127,-0.016933 0,-0.0127 0,-0.0254 0,-0.1904999 0.02117,-0.3767664 0.0254,-0.1904998 0.0508,-0.3809996 0.0254,-0.1904999 0.04657,-0.3767664 0.0254,-0.1904998 0.0254,-0.3809997 0,-0.0127 0,-0.042333 0.0042,-0.033867 0.02117,-0.042333 0.0085,-0.00423 0.01693,0 0.0085,0.00423 0.01693,0.00847 0.02963,0.00847 0.122767,0.029633 0.09313,0.021167 0.1905,0.046567 0.1016,0.0254 0.182033,0.055033 0.08043,0.0254 0.0889,0.042333 -0.0085,0.021167 -0.0508,0.059267 -0.04233,0.0381 -0.0635,0.059267 -0.118533,0.1481666 -0.182033,0.3259664 -0.05927,0.1777999 -0.1143,0.3598331 -0.05503,0.1820332 -0.131233,0.3513663 -0.07197,0.1693332 -0.2159,0.3005665 z M 17.818957,2.1844443 q 0,-0.0381 0.01693,-0.0381 0.01693,0 0.0381,0.016933 0.0381,0.029633 0.07197,0.071967 0.03387,0.0381 0.06773,0.071967 0.1397,0.1608666 0.2413,0.3513664 0.105833,0.1862665 0.105833,0.4021663 0,0.067733 -0.01693,0.1481666 -0.01693,0.080433 -0.05503,0.1523998 -0.03387,0.067733 -0.09313,0.1185333 -0.05927,0.046567 -0.139699,0.046567 -0.02963,0 -0.06773,-0.00847 -0.03387,-0.0127 -0.06773,-0.029633 -0.02963,-0.021167 -0.0508,-0.046567 -0.02117,-0.029633 -0.02117,-0.067733 0,-0.1354665 0.0127,-0.2624664 0.01693,-0.1312332 0.01693,-0.2666998 0,-0.1650999 -0.02963,-0.3301997 -0.02963,-0.1650999 -0.02963,-0.3301997 z m 2.036232,2.0573982 q 0,0.0127 0.0127,0.0381 0.0127,0.021167 0.0127,0.042333 0,0.021167 -0.0085,0.0381 -0.0085,0.016933 -0.01693,0.0381 -0.0127,0.046567 -0.0042,0.1100666 0.0085,0.067733 -0.0085,0.1058332 -0.02117,0.0381 -0.08043,0.059267 -0.05503,0.021167 -0.122766,0.029633 -0.06773,0.0127 -0.135467,0.0127 -0.0635,0.00423 -0.1016,0.00423 -0.0254,0 -0.0508,-0.00423 -0.0254,-0.00423 -0.0254,-0.0381 0,-0.4952996 -0.02117,-0.9821325 -0.01693,-0.4868329 -0.01693,-0.9821325 0,-0.0381 0.04233,-0.0381 0.02963,0 0.118533,0.033867 0.0889,0.029633 0.186267,0.0762 0.09737,0.042333 0.173566,0.0889 0.0762,0.042333 0.0762,0.067733 0,0.021167 -0.01693,0.042333 -0.0127,0.021167 -0.0127,0.042333 z M 17.586124,3.9497428 q 0.245533,-0.033867 0.486833,-0.0762 0.245533,-0.046567 0.482599,-0.1227665 0.0635,-0.021167 0.1397,-0.055033 0.0762,-0.033867 0.1524,-0.067733 0.08043,-0.033867 0.156633,-0.055033 0.0762,-0.0254 0.1397,-0.0254 0.0085,0 0.02117,0.00423 0.0127,0.00423 0.0127,0.0127 v 0.021167 q -0.0042,0.029633 -0.07197,0.0889 -0.06773,0.059267 -0.173566,0.1312333 -0.1016,0.071967 -0.224367,0.1523998 -0.122766,0.0762 -0.237066,0.1481666 -0.1143,0.071967 -0.207433,0.1269999 -0.0889,0.055033 -0.127,0.080433 -0.0127,0.00847 -0.05927,0.042333 -0.04657,0.033867 -0.09737,0.067733 -0.04657,0.0381 -0.0889,0.067733 -0.0381,0.029633 -0.04233,0.029633 -0.02117,0 -0.0635,-0.0762 -0.04233,-0.0762 -0.0889,-0.1735666 -0.04657,-0.097367 -0.08467,-0.1862665 -0.0381,-0.093133 -0.04233,-0.1227665 z m 2.370665,0.3640663 h 0.673099 l 0.0127,0.0127 -0.0127,0.016933 h -0.673099 l -0.01693,-0.016933 z"
         id="path5523"
         style="fill:currentColor;fill-opacity:1" />
    </g>
  </g>
</svg>
